<?xml version="1.0" encoding="utf-8"?>
<!-- Generator: Adobe Illustrator 17.0.0, SVG Export Plug-In . SVG Version: 6.00 Build 0)  -->
<!DOCTYPE svg PUBLIC "-//W3C//DTD SVG 1.1//EN" "http://www.w3.org/Graphics/SVG/1.1/DTD/svg11.dtd">
<svg version="1.1" id="Isolationsmodus" xmlns="http://www.w3.org/2000/svg" xmlns:xlink="http://www.w3.org/1999/xlink" x="0px"
	 y="0px" width="563.081px" height="20.256px" viewBox="0 0 563.081 20.256" enable-background="new 0 0 563.081 20.256"
	 xml:space="preserve">
<g id="Linien_2_" opacity="0.5">
	<path fill-rule="evenodd" clip-rule="evenodd" fill="#66451F" d="M518.654,17.438c2.303,0.136,3.074,0.64,5.36,0.001
		c0.24,0.265,0.891,0.146,1.148,0.395c0.013-0.108,0.033-0.209,0.185-0.172c0.15,0.487,0.272-0.204,0.707,0.202
		c0.142-0.004,0.077-0.226,0.274-0.169c0.508,0.013,0.783,0.26,1.074-0.055c2.188,0.655,4.103,0.138,6.858,0.587
		c0.036-0.248,0.303-0.062,0.545-0.25c0.163,0.077,0.357,0.126,0.438,0.282c3.304,0.139,7.124,0.306,11.233,0.731
		c0.343-0.508,0.813,0.023,1.25,0.042c-0.06-0.003,0.237-0.291,0.276-0.258c0.527,0.425,2.467-0.018,3.309-0.069
		c-0.023,0.251,0.244,0.232,0.345,0.369c0.711-0.524,1.159-0.274,1.969-0.113c0.029-0.246,0.271-0.265,0.458-0.343
		c0.028,0.363,0.558-0.214,0.615,0.289c0.095-0.116,0.157-0.265,0.281-0.349c0.162,0.164,0.568,0.102,0.703,0.291
		c0.002-0.153,0.077-0.226,0.188-0.262c0.809,0.447,2.063-0.327,2.67,0.358c0.018-0.104-0.008-0.254,0.098-0.265
		c1.415,0.299,3.188,0.152,4.103,0.227c-0.184,0.622,0.354-0.012,0.34,0.548c-0.022,0.736-1.068,0.439-1.543,0.662
		c-0.621-0.146-2.585-0.169-3.837-0.128c-0.584,0.02-1.731-0.271-2.229-0.163c-0.182,0.039-0.218,0.271-0.366,0.257
		c-0.343-0.034-0.426-0.063-0.803-0.027c-0.139,0.012-0.596-0.22-0.797-0.206c-0.016,0.002-0.415,0.141-0.535-0.018
		c-0.001,0.153-0.076,0.226-0.188,0.261c-0.743-0.237-2.316,0.24-3.749-0.124c-3.323,0.785-6.985-0.309-9.91-0.151
		c-0.786-0.229-1.245-0.248-2.318-0.165c-1.583-0.615-3.72-0.086-5.347-0.447c-2.053,0.292-4.522-0.284-6.151-0.384
		c-0.023,0.313-0.132,0.021-0.363,0.167c-0.206,0.02-0.091-0.261-0.258-0.276c0.017,0.203-0.033,0.334-0.191,0.351
		c-0.957-0.476-1.908-0.086-2.767-0.092c-0.583-0.006-1.29-0.463-1.878,0.026c-0.267-0.385-0.874,0.096-1.247-0.13 M513.835,17.278
		c1.092,0.325,1.804,0.504,3.214,0.018c0.101-0.361,0.003-0.36,0.026-0.803c0.091,0.003,0.105,0.076,0.177,0.095 M433.1,13.606
		c0.017,0.459,0.016,0.944,0.405,1.265c0.271-0.283,0.906-0.353,0.981,0.032c-0.03-0.279,0.201-0.278,0.456-0.253
		c0.526,0.264,1.733,0.392,2.136,0.25c0.484,0.529,1.492-0.265,1.686,0.324c0.498-0.22,1.678-0.247,1.871,0.152
		c0.011-0.26,0.513-0.194,0.629-0.068c0.016-0.105-0.008-0.255,0.099-0.266c0.275,0.12,0.744,0.532,0.8,0.116
		c-0.052,0.277,0.096,0.437,0.258,0.277c0.316-0.017-0.307-0.251,0.009-0.269c0.45,0.177,0.902-0.041,1.149,0.396
		c0.009-0.122-0.036-0.197-0.081-0.27c0.722-0.116,0.889,0.385,1.25,0.042c0.214,0.124-0.109,0.326,0.077,0.359
		c0.047-0.104,0.103-0.2,0.187-0.262c0.267,0.194,0.382,0.145,0.702,0.381c0.126-0.221-0.344-0.292-0.077-0.361
		c0.04,0.353,0.59-0.077,0.349,0.281c1.213-0.096,1.877-0.069,3.222-0.162c-0.029,0.183,0.332,0.425,0.349,0.28
		c-0.184,0.021,0.026-0.258,0.097-0.266c0.169,0.662,0.569-0.103,1.153,0.218c0.043,0.13-0.353,0.206-0.098,0.265
		c0.33-0.382,0.891-0.058,1.166-0.14c-0.115-0.006-0.103-0.252,0.01-0.269c0.25,0.118,0.547,0.129,0.803,0.026
		c0.131,0.44,0.072,0.168,0.18,0.007c0.223,0.109,0.2,0.447,0.521,0.464c0.053-0.128-0.088-0.464,0.104-0.442
		c0.167,0.023,0.282,0.53,0.438,0.282c-0.097-0.025-0.21-0.154-0.084-0.182c0.198,0.294,0.315,0.126,0.523,0.374
		c0.005-0.271-0.031-0.588,0.287-0.525c0.025,0.383-0.14,0.233,0.249,0.544c0.122-0.269-0.29-0.465-0.07-0.538
		c0.048,0.156,0.423,0.008,0.438,0.194c-0.005,0.146-0.249,0.041-0.272,0.169c0.337,0.028,0.373,0.025,0.807-0.064
		c0.474-0.097,1.283-0.252,1.614-0.214c0.091,0.011,0.107,0.199,0.174,0.185c0.288-0.063,0.188-0.434,0.356,0.013
		c0.1-0.538,0.537-0.013,0.439,0.192c0.069-0.205,0.239-0.299,0.372-0.435c0.221-0.01,0.453,0.301,0.624,0.021
		c-0.031,0.202,0.011,0.337,0.167,0.363c0.155-0.049,0.008-0.424,0.194-0.439c-0.076,0.47,0.549,0.216,0.619,0.199
		c-0.207-0.038-0.417-0.073-0.346-0.369c0.15,0.147,0.551,0.061,0.615,0.288c-0.069,0.019-0.176-0.004-0.182,0.084
		c0.495-0.274,0.985-0.462,1.428,0.047c0.096-0.299,0.133-0.012,0.188-0.262c0.206-0.021,0.091,0.261,0.259,0.277
		c0.174-0.152-0.113-0.281,0.19-0.352c-0.004,0.149,0.245,0.058,0.261,0.188c-0.365-0.106-0.248,0.18-0.098,0.265
		c0.052-0.219,0.619-0.485,0.807-0.062c0.019-0.134-0.021-0.331,0.102-0.354c0.335,0.395,1.352-0.271,1.597,0.32
		c-0.121-0.627,0.988,0.113,0.812-0.241c0.116,0.094,0.167,0.247,0.348,0.28c0.223-0.112-0.151-0.274,0.101-0.354
		c0.093,0.087,0.019,0.331,0.26,0.276c0.735-0.215,2.455,0.146,3.566,0.209c0.017-0.105-0.008-0.254,0.099-0.265
		c0.244,0.079,0.795-0.033,1.154,0.217c0.299-0.384,0.863,0.095,1.246,0.131c0.44,0.042,0.728-0.209,1.169-0.229
		c0.34-0.015,0.849,0.103,1.246,0.131c1.125,0.082,2.061,0.18,3.043-0.166c1.798,0.516,3.547,0.176,5.711,0.191
		c-0.001,0.089-0.075,0.104-0.094,0.176c0.303,0.077,0.124-0.359,0.455-0.253c0.011,0.105-0.023,0.253,0.08,0.27
		c-0.042-0.401,0.465-0.087,0.807-0.062c-0.118-0.451,0.53-0.26,0.538-0.07c0.093-0.505,0.246,0.106,0.545-0.251
		c0.003,0.142-0.022,0.311,0.169,0.274c0.017-0.104-0.007-0.254,0.1-0.265c0.21,0.345,0.188-0.032,0.533,0.018
		c0.012,0.135-0.042,0.328,0.08,0.359c0.079-0.677,0.601-0.166,0.807-0.151c0.377,0.029,0.925-0.385,1.16,0.039
		c0.178-0.262,0.569-0.133,0.805,0.026c-0.01,0.114-0.119,0.119-0.098,0.265c0.346,0.154,0.043-0.384,0.278-0.347
		c0.359,0,0.702,0.283,0.974,0.3c-0.148,0.059-0.132-0.427,0.013-0.357c-0.017,0.443,0.057,0.138,0.174,0.095
		c0.656-0.238,0.836,0.282,1.434-0.13c-0.012,0.263,0.403,0.316,0.531,0.195c0.012,0.135-0.044,0.329,0.077,0.36
		c0.395-0.615,0.691,0.279,1.254-0.136c0.012,0.134-0.042,0.327,0.077,0.358c0.126-0.05,0.024-0.343,0.189-0.35
		c0.31,0.407,0.796,0.22,1.338,0.133c0.142,0.443,0.146,0.307,0.351,0.191c0.011,0.135-0.043,0.327,0.076,0.359
		c0.271-0.752,1.689,0.199,2.155-0.285c1.057,0.558,1.907-0.161,2.751,0.538c0.07-0.585,1.061,0.354,0.994-0.324
		c1.906,0.378,3.241,0.236,4.542,0.419c-0.027,0.565,0.106-0.001,0.089,0.003c0.499-0.1,1.056,0.21,1.423,0.226
		c0.889,0.04,2.043-0.197,2.498,0.084c0.354-0.118,0.806-0.41,1.081-0.232c-0.053-0.475,0.235-0.075,0.366-0.256 M427.713,14.409
		c1.336-0.187,2.563,0.271,3.929,0.042c0.045-0.213-0.156-0.199-0.074-0.448c0.361,0.131,0.482-0.824,0.213-0.976 M345.226,12.377
		c0.707,0.274,1.536-0.249,1.876,0.062c0.376,0.344-0.243,0.062,0.181-0.083c-0.117,0.039,0.781,0.017,1.16,0.038
		c0.415,0.023,0.847,0.3,1.155,0.218c0-0.154,0.075-0.227,0.186-0.262c0.463,0.263,1.561-0.086,2.132,0.338
		c0.767-0.329,2.143,0.378,2.596-0.092c0.083,0.123,0.296,0.126,0.349,0.28c1.231-0.391,2.683,0.195,4.03-0.312
		c0.182,0.032,0.168,0.247,0.349,0.28c-0.037-0.441,0.243-0.089,0.456-0.343c0.041,0.107,0.089,0.206,0.171,0.274
		c0.777-0.422,1.364,0.061,2.142,0.071c0.344,0.004,0.681-0.236,0.991-0.235c0.322,0.001,0.623,0.221,0.976,0.212
		c0.56-0.015,0.967-0.097,1.342-0.045c0.533,0.072,0.821-0.243,1.066,0.125c1.11-0.102,2.83-0.05,4.103,0.227
		c1.021-0.064,2.126-0.191,2.854,0.184c0.098-0.082,0.038-0.329,0.276-0.26c1.091-0.03,1.989,0.28,3.308-0.068
		c0.164,0.35,0.23,0.102,0.354,0.102c1.369-0.023,3.844,0.315,5.896,0.017c0.084,0.096,0.172,0.188,0.259,0.276
		c1.175-0.307,3.661-0.256,4.821,0.072c0.286,0.119,0.079-0.286,0.364-0.167c0.72,0.214,1.376,0.13,2.141,0.07
		c0.435,0.244,1.829,0.154,2.506-0.095c0.407,0.437,1.282,0.195,1.871,0.152c-0.118,0.308,0.345,0.127,0.622,0.109
		c0.395-0.024,2.08-0.086,3.403-0.243c-0.011,0.153,0.061,0.23,0.169,0.273c0.009-0.149,0.04-0.157,0.185-0.173
		c2.134-0.243,3.625,0.11,5.081,0.349c1.899-0.209,3.132-0.246,5.17,0.351c0.241-0.417,1.002-0.396,1.431-0.042
		c0.087-0.564,0.687-0.084,1.074-0.053c0.795,0.061,1.964-0.219,2.15-0.197c0.322,0.037,0.734,0.375,0.972,0.39
		c0.325,0.021,0.72-0.26,1.078-0.231c0.126,0.009,0.201,0.263,0.348,0.279c0.219,0.024,0.459-0.158,0.721-0.154
		c1.231,0.021,2.126,0.11,2.943,0.187c0.197,0.019,0.498-0.151,0.718-0.155c0.479-0.005,0.867,0.094,1.162,0.04
		c0.235-0.044,0.555,0.193,0.796,0.205c0.683,0.032,2.093-0.024,2.595-0.093c0.245-0.057,0.173,0.184,0.351,0.19
		c0.699-0.142,0.144-2.023,0.607-2.124 M309.438,11.273c0.988,0.277,1.116,0.151,2.053,0.068c0.024,0.37,0.454-0.023,0.787,0.474
		c0.062-0.312-0.411-0.308-0.16-0.541c0.31,0.017,0.399,0.5,0.622,0.109c0.491,0.494,1.327-0.011,1.875,0.062
		c-0.001,0.123-0.05,0.194-0.099,0.266c0.368,0.046,0.713-0.361,0.893,0.028c0.008-0.122-0.037-0.196-0.08-0.269
		c0.549-0.002,0.115,0.275,0.711,0.112c-0.121,0.115-0.13,0.328,0.076,0.359c-0.06-0.309,0.097-0.389,0.283-0.437
		c0.01,0.106-0.024,0.253,0.081,0.271c0.473-0.214,1.562-0.089,2.055-0.021c-0.066-0.009-0.179,0.018-0.182,0.083
		c0.417-0.028,0.396,0.011,0.72-0.154c-0.001,0.123-0.048,0.194-0.099,0.265c0.384,0.07,0.294-0.365,0.637-0.336
		c0.087,0.121,0.074,0.335,0.258,0.366c0.016-0.106-0.007-0.255,0.096-0.266c0.02,0.482,0.67,0.19,0.892,0.119
		c-0.027,0.168,0.094,0.199,0.077,0.359c0.364-0.078,0.611,0.292,0.631-0.157c-0.228-0.104-0.436,0.257-0.535-0.017
		c0.137-0.216,1.357-0.269,1.065,0.214c0.381,0.055,0.119-0.236,0.275-0.259c0.302-0.022,0.756,0.377,0.803,0.026
		c0.262,0.393,0.411-0.157,0.707,0.202c0.014-0.14-0.001-0.31,0.188-0.261c-0.095,0.326,0.479-0.055,0.254,0.456
		c-0.011-0.196,0.082-0.283,0.275-0.26c-0.167,0.473,0.514,0.152,0.613,0.378c0.028-0.287-0.387-0.159-0.343-0.458
		c0.422-0.107,0.366,0.329,0.615,0.288c-0.21-0.033,0.109-0.238,0.188-0.263c0.045,0.133-0.119,0.458,0.075,0.45
		c0.021-0.335,0.175-0.296,0.194-0.44c0.261,0.383,0.63,0.277,1.061,0.304c0.064-0.453-0.314-0.013-0.256-0.366
		c0.398,0.237,0.8,0.583,0.711,0.112c0.143,0.225,0.623,0.458,0.884,0.298c0.107-0.417-0.306,0.137-0.352-0.189
		c0.524-0.131,0.722,0.348,1.071,0.035c0.011,0.106-0.023,0.252,0.08,0.271c0.2-0.188,0.454-0.317,0.815-0.331
		c0.045,0.13-0.354,0.206-0.098,0.265c-0.019-0.28,0.249,0.235,0.27-0.081c-0.068-0.021-0.177-0.008-0.176-0.094
		c0.208-0.023,0.342,0.025,0.443,0.102c0.009-0.122-0.035-0.196-0.081-0.269c0.311,0.179,0.72,0.344,0.896-0.061
		c0.105,0.228-0.055,0.278,0.076,0.36c0.142,0.003,0.319-0.116,0.546-0.249c-0.026,0.126-0.152,0.146-0.189,0.26
		c0.261,0.031,0.314-0.156,0.456-0.251c0.076,0.396,0.13,0.028,0.179,0.006c0.268,0.003,0.444,0.277,0.253,0.455
		c0.271-0.145,0.451,0.044,0.626-0.069c0.026-0.251-0.343-0.234,0.013-0.356c0.194-0.009,0.03,0.318,0.075,0.45
		c0.387-0.115,0.544,0.004,0.901-0.239c-0.306-0.174-0.379-0.029-0.627,0.068c-0.003-0.113-0.112-0.127-0.081-0.271
		c0.284-0.111,0.35,0.045,0.804-0.061c0.047,0.157-0.123,0.519,0.072,0.538c0.016-0.109,0.035-0.211,0.186-0.173
		c0.077-0.389-0.18,0.066-0.173-0.184c0.076-0.328,0.268,0.047,0.452-0.163c-0.05,0.13-0.139,0.221-0.189,0.35
		c0.365,0.083,0.181-0.42,0.547-0.338c-0.097,0.255,0.31,0.421,0.703,0.38c0.276-0.148-0.236-0.283,0.012-0.356
		c0.429,0.045,0.683,0.062,0.876,0.477c-0.065-0.349,0.163-0.381,0.286-0.526c0.239,0.15,0.711,0.085,0.79,0.383
		c-0.027-0.432,0.472-0.228,0.089,0.003c0.331,0.106,0.154-0.33,0.458-0.253c0.008,0.106-0.024,0.253,0.079,0.271
		c0.229-0.352,0.748-0.258,1.176-0.406c0.141-0.959-0.324-2.565,0.883-2.384c-0.301,0.61-0.159,1.212,0.041,1.431
		c-0.043,0.173-0.249-0.154-0.186,0.263c0.2,0.184,0.099-0.02,0.27-0.081c0.081,0.382,0.106,0.682,0.149,0.899
		c0.053-0.152,1.107-0.144,1.333,0.223c0.021-0.315,0.163,0.015,0.276-0.259c0.274,0.277,0.997-0.071,1.785,0.06
		c0.236-0.287,0.118-0.682,0.112-0.712 M304.794,11.209c0.352,0.065,0.798,0.289,0.98,0.032c-0.089,0.411,0.138,0.099,0.171,0.273
		c0.406-0.407,1.238-0.195,1.969-0.113c0.066-0.266,0.298-0.359,0.378-0.611c-0.331-0.317,0.219-1.534-0.215-1.616 M69.042,5.053
		c-1.557-0.191-3.224-0.242-4.721-0.425c-0.532-0.065-1.255-0.415-1.506-0.407c-1.358,0.04-2.601,0.071-3.742-0.304
		c-0.155,0.384-0.396,0.235-0.904,0.326c-0.015,0.262-0.214,0.325-0.372,0.436c-5.531-0.607-12.016-1.172-18.277-1.145
		c-3.63,0.015-7.513-1.024-11.048-0.905c-2.204,0.075-4.27-0.128-6.337-0.211c-0.748-0.03-1.73,0.106-2.234,0.016
		c-2.983-0.546-6.621-0.035-9.82-0.238C6.782,1.986,3.389,1.947,0,1.77c0.011-0.327,0.022-0.654,0.033-0.981
		c0.024,0.257,0.67-0.077,0.803,0.026C1.24,1.126,0.568,0.836,1.015,0.821c1.949-0.066,3.579-0.122,5.444,0.182
		c0.172-0.386,1.19-0.483,1.523-0.128c0.64-0.105,1.666-0.113,2.588,0.086c0.875-0.248,1.699-0.041,2.136,0.25
		c1.296-0.613,2.546,0.288,3.855-0.408c-0.204-0.098-0.17-0.416-0.155-0.72c0.09,0.004,0.109-0.068,0.182-0.083
		c0.348,0.021,0.65,0.083,0.794,0.294c0.018-0.104-0.006-0.253,0.099-0.266c0.414,0.235,1.146,0.445,1.6,0.233
		c0.011,0.105-0.023,0.253,0.081,0.27c0.001-0.05,0.076-0.099,0.089,0.002c0.175,0.033,0.182-0.113,0.274-0.169
		c0.948,0.62,2.587,0.301,4.263,0.768c0-0.153,0.076-0.227,0.187-0.263c1.292,1.108,2.923-0.096,4.177,0.676
		c0.147,0.004,0.059-0.245,0.188-0.262c2.166,0.568,3.779,0.179,5.986,0.021c0.206-0.021,0.09,0.261,0.258,0.276
		c0.705-0.419,1.203,0.02,2.064-0.289c1.918,0.549,4.118-0.61,6.254,0.029c0.071-0.23,0.3-0.294,0.374-0.522
		c1.533,0.279,2.176,0.246,3.642,0.656c0.017-0.104-0.008-0.254,0.098-0.264c0.855,0.344,2.604,0.216,3.392,0.112
		c-0.003,0.089-0.006,0.179-0.009,0.267c0.248-0.043,0.322-0.27,0.633-0.246c0.077,0.395,0.13,0.029,0.18,0.006
		c1.963,0.513,3.795,1.333,5.598,0.9c-0.16,0.007-0.206-0.095-0.169-0.273c0.678-0.58,1.638-0.239,2.597-0.181
		c0.976,0.059,2.078-0.219,2.312,0.345c-0.037-0.544,0.397-0.052,0.535,0.018c1.023-0.488,2.799-0.042,3.835,0.217
		c0.31-0.292,0.892-0.027,1.332,0.224c0.099-0.112,0.611-0.238,0.711,0.113c0.078-0.508,1.04-0.349,1.161,0.038
		c0.093-0.467,0.243-0.073,0.538-0.071c0.716,0.005,0.797-0.143,1.255-0.138c0.072,0.221-0.181,0.695-0.015,0.446
		c0.202-0.03,0.003-0.49,0.282-0.437c1.138,0.336,2.171,0.156,3.198,0.553c-0.09-0.002-0.118,0.153-0.005,0.179
		c0.017-0.166,0.067-0.297,0.189-0.351c0.118,0.205,0.06,0.49,0.262,0.188c0.249,0.11-0.148,0.764,0.071,0.539
		c0.195-0.07-0.015-0.571,0.2-0.619c1.303,0.567,2.278,0.443,3.632,0.925c-0.07-0.022-0.102-0.078-0.084-0.182
		c0.425,0.122,0.907,0.39,1.327,0.401c0.23,0.007,1.595-0.506,1.606,0.055c0.055-0.128,0.146-0.214,0.277-0.26
		c0.011,0.105-0.024,0.253,0.079,0.27C82.441,3.883,83.31,4.364,84,3.942c-0.01,0.154,0.061,0.232,0.169,0.274
		c0.091-0.089,0.183-0.174,0.277-0.259c0.181,0.032,0.167,0.248,0.348,0.279c0.047-0.103,0.102-0.198,0.188-0.262
		c1.974,0.325,3.749-0.074,5.354,0.178c0.023-0.068,0.009-0.176,0.096-0.175c0.602,0.151,1.544,0.317,1.871,0.151
		c0.402,0.203,0.732,0.263,1.151,0.308c0.687,0.07,1.009-0.157,1.702-0.122c0.19,0.008,0.428,0.211,0.618,0.198
		c0.223-0.015,0.413-0.244,0.634-0.247c0.409-0.003,1.095,0.081,1.514,0.141c0.471,0.065,0.73,0.032,1.251,0.041
		c0.644,0.011,1.514,0.304,2.135,0.25c0.533-0.046,0.776-0.105,1.259-0.227c0.513,0.329,2.656,0.365,3.21,0.196
		c0.783-0.236,1.49,0.241,2.225,0.253c0.003,0,0.167-0.152,0.273-0.169c0.777-0.124,1.764,0.316,2.493,0.262
		c0.498-0.037,1.042-0.229,1.519,0.05c0.021-0.065,0.008-0.18,0.094-0.175c1.779,0.094,3.551-0.148,4.915-0.016
		c1.085,0.104,2.293,0.233,2.76,0.27c0.07,0.007,0.29-0.169,0.363-0.166c0.714,0.022,1.749,0.197,2.228,0.164
		c0.294-0.021,0.833,0.229,1.155,0.216c1.42-0.054,3.265-0.071,4.462,0.149c0.504-0.243,0.945,0.15,1.434-0.131
		c0.024,0.346,0.443-0.023,0.616,0.289c1.395-0.438,2.577,0.008,4.2-0.04c3.015-0.085,5.719,0.115,8.752,0.113
		c0.411,0,0.835,0.211,1.244,0.22c0.322,0.008,0.618-0.196,0.898-0.148c0.843,0.146,1.963,0.327,2.757,0.36
		c0.345,0.014,1.004-0.229,1.349-0.224c0.177,0.004,0.427,0.279,0.617,0.2c0.07-0.03-0.028-0.177,0.097-0.177
		c2.744,0.023,5.806,0.338,7.665,0.524c0.331-0.188,1.155-0.15,1.702-0.122c0.453,0.023,0.969,0.239,1.422,0.226
		c4.464-0.132,9.527,0.137,14.195,0.294c0.184,0.007,0.55-0.056,0.718-0.065c1.047-0.061,2.053-0.114,3.04-0.077
		c0.01,0.105-0.023,0.253,0.08,0.27c0.249-0.517,0.673-0.059,1.342-0.044c0.75,0.016,1.559-0.303,1.784,0.059
		c1.501-0.544,3.552,0.35,5.272-0.002c0.207,0.656,0.935-0.236,1.237,0.398c5.09,0.075,10.871-0.078,15.351,0.512
		c0.701-0.182,2.139-0.406,3.396-0.066c0.718,0.007,2.132-0.501,2.407,0.17c-0.069-0.289,0.146-0.274,0.278-0.348
		c0.887,0.424,2.018-0.16,2.931,0.544c0.546-0.455,1.769-0.4,2.413-0.01c0.846-0.142,1.529-0.22,2.767,0.092
		c0.062-0.46,1.282-0.148,1.517,0.051c0.857-0.386,1.903-0.154,2.24-0.193c0.905-0.101,1.907,0.335,3.025,0.369
		c0.295,0.01,0.585-0.356,0.896-0.06c0.656-0.315,1.652,0.013,2.05,0.157c0.227-0.549,1.289,0.23,1.885-0.293
		c0.047,0.129,0.133,0.222,0.26,0.275c0-0.153,0.077-0.227,0.187-0.262c0.425,0.148,1.831,0.116,2.054,0.069
		c0.79-0.172,2.054,0.497,2.323-0.013c0.235,0.259,0.643-0.061,1.151,0.307c0.094-0.115,0.095-0.33,0.28-0.348
		c0.08,0.332,0.517,0.104,0.698,0.47c0.68-0.253,1.16,0.096,1.886-0.295c0.141,0.013,0.064,0.231,0.262,0.188
		c0.926-0.111,1.6,0.08,2.58,0.354c0.787-0.296,2.275-0.2,2.853,0.184c0.372-0.554,1.435,0.081,1.975-0.291
		c0.153,0.145,0.57,0.044,0.616,0.288c0.019-0.104-0.006-0.254,0.098-0.265c0.268,0.238,1.855,0.34,2.056-0.021
		c0.463,0.113,1.303,0.087,1.772,0.416c0.001-0.153,0.077-0.227,0.189-0.262c0.489,0.668,1.553-0.248,2.141,0.07
		c0.08,0.044-0.074,0.261,0.08,0.271c0.172,0.012-0.106-0.422,0.363-0.166c0.349,0.188,0.781-0.081,1.164-0.051
		c0.85,0.064,1.597,0.108,2.489,0.352c0.018-0.104-0.008-0.254,0.098-0.266c0.625,0.221,1.68-0.046,2.765,0.182
		c0.009,0.106-0.024,0.252,0.08,0.27c0.157-0.494,0.386,0.017,0.804,0.028c0.551,0.015,0.716-0.478,0.983-0.057
		c0.203-0.532,0.879,0.023,1.259-0.226c-0.004,0.09-0.006,0.178-0.009,0.267c0.389-0.166,0.822-0.5,1.073-0.054
		c0.048-0.104,0.103-0.199,0.188-0.261c-0.011,0.152,0.061,0.23,0.17,0.273c0.566-0.271,1.609-0.038,2.054,0.069
		c0.593-0.645,2.366,0.274,2.866-0.263c0.588,0.381,1.384,0.322,2.229,0.164c0.119,0.269,0.225,0.013,0.44,0.194
		c0.018-0.105-0.007-0.255,0.099-0.266c0.357,0.403,0.95,0.036,1.684,0.413c0.162-0.375,0.436-0.249,0.716-0.064
		c0.939-0.379,3.185,0.3,4.022-0.045c0.117,0.207-0.241,0.327-0.012,0.356c0.161-0.227,0.224-0.449,0.452-0.163
		c0.019-0.105-0.007-0.254,0.099-0.266c0.538,0.344,1.529-0.143,2.13,0.428c-0.026-0.472,0.232,0.216,0.27-0.079
		c-0.183,0.021,0.027-0.259,0.099-0.266c0.127,0.039,0.147,0.113,0.269,0.009c0.011,0.135-0.043,0.329,0.077,0.36
		c-0.018-0.204,0.033-0.335,0.19-0.351c0.785,0.209,1.529,0.35,2.409,0.08c0.499,0.457,1.03,0.324,1.595,0.41
		c0.017-0.104-0.008-0.253,0.098-0.265c1.604,0.233,2.62,0.256,3.56,0.477c-0.105-0.018-0.255,0.007-0.267-0.099
		c0.524-0.047,0.628-0.021,0.976,0.211c0.089-0.1,0.38-0.444,0.541-0.16c-0.02,0.119-0.375,0.153-0.005,0.179
		c0.289-0.591,1.72,0.155,1.794-0.208c-0.011,0.153,0.062,0.23,0.17,0.273c0.019-0.133-0.021-0.331,0.101-0.354
		c0.869,0.323,2.449,0.222,3.825,0.484c0.155-0.023-0.105-0.314,0.277-0.259c0.312-0.032,0.304,0.233,0.434,0.372
		c-0.009-0.195,0.082-0.281,0.277-0.259c0.011,0.133-0.042,0.329,0.078,0.36c0.184-0.41,0.517-0.103,0.813-0.33
		c0.747,0.498,1.501,0.029,2.401,0.348c0.486-0.249,1.102-0.033,1.877-0.027 M303.679,12.513c-0.233-0.354-1.133-0.371-1.602-0.232
		c-0.01-0.106,0.024-0.254-0.08-0.272c-4.441,0.014-9.745-0.329-14.454-0.57c-0.004-0.141,0.021-0.31-0.17-0.274
		c-0.154,0.172,0.005,0.113-0.012,0.356c-0.415-0.521-1.536,0.105-2.223-0.343c-0.319,0.31-0.889,0.189-1.338-0.044
		c-0.678,0.139-1.768,0.289-2.406-0.169c-0.98,0.48-3.234-0.244-4.918,0.103c-0.179-0.443-0.006-0.179-0.177-0.095
		c-0.22,0.107-0.43-0.196-0.886-0.208c-0.91-0.023-1.917,0.477-3.037-0.013c-0.494,0.153-2.309,0.158-2.675-0.177
		c-1.464,0.341-3.505,0.053-5.003,0.012c-0.439-0.013-1.249,0.153-1.515-0.142c-1.099,0.378-2.539,0.057-4.2,0.04
		c-0.68-0.007-1.576,0.169-2.416,0.098c-0.84-0.071-1.956-0.446-2.843-0.452c-0.854-0.006-1.613,0.446-1.965-0.065
		c-0.075,0.318-0.335-0.012-0.543,0.25c-3.51-0.566-7.426-0.09-10.88-0.631c-0.891-0.14-1.793,0.015-2.68,0.001
		c-0.004-0.001,0.01-0.179,0.006-0.179c-0.371-0.069-0.961,0.36-1.34-0.044c-1.391,0.273-2.874-0.15-4.372-0.146
		c-2.007,0.006-3.717,0.111-5.721,0.077c-0.716-0.012-1.458-0.244-2.231-0.074c-0.006-0.1,0.135-0.135,0.007-0.179
		c-1.104,0.208-2.978-0.099-4.281-0.231c0,0.154-0.076,0.226-0.187,0.262c-0.638-0.502-1.768,0.35-2.137-0.25
		c-0.208,0.117-0.478,0.166-0.723,0.243c-0.055-0.581-0.813,0.087-0.973-0.301c-1.368,0.219-3.221-0.044-4.642-0.153
		c-0.009-0.001-0.026,0.188-0.183,0.172c-0.629-0.06-1.372,0.028-1.869-0.24c-0.441,0.209-0.279-0.054-0.72,0.154
		c-1.189-0.232-2.633-0.391-4.022,0.046c-0.911-0.264-2.351-0.272-3.299-0.2c-0.178-0.007-0.105-0.248-0.352-0.19
		c-0.213,0.109-0.198-0.052-0.363,0.167c-0.806-0.144-1.666-0.116-2.588-0.087c-1.769,0.058-3.677-0.297-5.441-0.271
		c-0.533,0.009-1.326,0.146-1.522,0.129c-0.161-0.016-0.264-0.27-0.438-0.283c-0.064-0.005-0.251,0.166-0.362,0.166
		c-0.433,0.002-0.922-0.266-1.336-0.134c-0.176-0.298-0.418-0.119-0.804-0.026c-0.164-0.075-0.321-0.16-0.529-0.197
		c-0.128,0.018-0.155,0.142-0.273,0.17c-4.063-0.328-8.622-0.537-13.294-0.531c-1.144,0-2.498-0.139-3.838-0.128
		c-0.545,0.005-1.188,0.17-1.791,0.119c-1.09-0.093-2.164-0.467-3.028-0.279c-1.129,0.244-2.484-0.212-3.837-0.128
		c-0.976,0.06-2.089,0.398-3.05,0.345c-2.745-0.152-5.118-0.591-7.746-0.795c-0.804,0.367-1.884,0.226-2.502,0.007
		c-0.047,0.103-0.102,0.199-0.188,0.262c-0.476-0.289-1.084-0.26-1.689-0.234c-0.237,0.009-0.608,0.184-0.811,0.151
		c-0.107-0.019-0.217-0.318-0.344-0.369c-0.443-0.18-1.102,0.197-1.526,0.218c-1.138-0.206-1.993,0.089-3.564-0.297
		c-0.293,0.204-0.98,0.233-1.248-0.043c-0.029,0.278-0.449,0.138-0.72,0.155c-0.041-0.107-0.089-0.206-0.17-0.274
		c-0.545,0.524-1.316-0.093-2.056,0.022c-0.543,0.084-1.334,0.203-1.973,0.203c-0.001,0,0.008-0.179,0.006-0.18
		c-0.742-0.094-1.673,0.176-2.505,0.096c-0.357-0.033-0.733-0.3-1.063-0.303c-0.173-0.004-0.39,0.228-0.544,0.25
		c-1.057,0.136-2.883-0.215-4.371-0.236c-0.696-0.01-1.257,0.026-1.697,0.033c-0.311,0.004-0.738-0.284-1.062-0.303
		c-0.572-0.032-1.159-0.062-1.077,0.142c-2.334-0.169-4.472-0.259-6.955-0.409c0.054,0.24-0.19,0.166-0.276,0.259
		c-2.54-0.191-4.795-0.114-7.41-0.158c-0.119-0.002-0.073-0.176-0.172-0.186c-0.638-0.054-1.406,0.196-2.151,0.198
		c-0.03-0.001-0.112-0.186-0.263-0.188c-0.78-0.012-1.514,0.39-2.239,0.193c-0.473-0.128-0.958,0.06-1.425-0.137
		c-0.967,0.1-1.783,0.006-2.853-0.185c-0.493,0.25-2.439,0.013-2.855-0.096c-2.894-0.753-5.624-0.307-8.199-0.63
		c-0.339,0.212-0.679,0.311-1.083,0.32c-1.783,0.048-3.271,0.161-4.83,0.197c-0.338,0.008-0.838-0.37-1.078,0.143 M512.362,18.57
		c-1.576-0.082-3.238,0.262-4.466-0.059c-0.364,0.338-1.62-0.162-2.313-0.258c-2.119-0.054-4.333,0.14-6.42-0.392
		c-1.642,0.343-3.392-0.283-4.992-0.345c-0.01-0.001-0.02,0.173-0.096,0.175c-1.51,0.059-3.183-0.117-4.821-0.071
		c0.003,0,0.003-0.179,0.006-0.179c-1.074-0.011-2.184,0.261-3.403,0.244c-1.199-0.016-2.383-0.37-3.481-0.115
		c-0.331-0.399-0.886,0.219-0.792-0.295c-1.746-0.051-3.526,0.602-5.448-0.092c-0.457,0.212-1.064,0.366-1.249-0.041
		c-1.756,0.387-2.888-0.407-4.555-0.064c-0.012-0.104,0.023-0.252-0.081-0.27c-0.645,0.279-1.721,0.497-2.048-0.157
		c-0.001,0.153-0.078,0.226-0.189,0.262c-2.242-0.221-3.859-0.04-5.979-0.199c-0.142-0.013-0.062-0.23-0.261-0.188
		c-0.019,0.104,0.007,0.254-0.1,0.265c-0.04-0.422-0.542,0.282-0.8-0.116c-0.008-0.091,0.392-0.167,0.098-0.264
		c-0.301,0.31-1.141,0.618-1.251,0.047c-0.021,0.133,0.022,0.33-0.103,0.354c-0.243-0.142,0.203-0.394-0.166-0.363
		c-0.018,0.105,0.007,0.254-0.099,0.264c-0.438-0.298-0.855,0.527-1.157-0.127c-0.017,0.103,0.008,0.254-0.098,0.266
		c-1.153-0.273-2.707,0.228-3.833-0.218c-0.042,0.152,0.122,0.233-0.009,0.268c-0.479,0.046-0.331-0.423-0.528-0.285
		c0.16-0.022-0.006,0.346-0.187,0.261c0.058-0.343-0.213-0.019-0.438-0.282c-0.13,0.653-0.878-0.264-0.815,0.33
		c-0.3-0.544-0.852,0.104-1.244-0.221c0.145,0.07,0.395-0.164,0.185-0.172c-0.75,0.322-1.573,0.081-2.234,0.016
		c0.069-0.018,0.176,0.003,0.181-0.083c-0.463,0.346-1.035-0.047-1.172,0.317c-0.209-0.034-0.039-0.425-0.345-0.368
		c-0.261,0.041,0.133,0.144,0.081,0.27c-0.734,0.161-1.15-0.341-1.608-0.054c0.104-0.125,0.104-0.215-0.079-0.271
		c-0.014,0.14,0.002,0.31-0.186,0.262c0.174-0.294-0.023-0.078-0.18-0.006c0.003-0.09,0.006-0.178,0.009-0.268
		c-0.347,0.021-0.354,0.039-0.634,0.246c0.024-0.194-0.064-0.286-0.258-0.276c-0.018,0.104,0.006,0.253-0.099,0.265
		c-0.018-0.07-0.072-0.106-0.177-0.096c0.027-0.126,0.153-0.145,0.188-0.262c-0.479,0.598-1.493,0.09-1.965,0.024
		c0.042,0.135,0.049,0.141,0.258,0.276c-0.548-0.262-1.322,0.1-1.509-0.317c-0.218,0.34-0.707,0.069-0.981-0.033
		c-0.627,0.104-1.488,0.416-2.143-0.072c-0.659,0.119-1.882-0.066-2.596,0.183c-0.07-0.062-0.097-0.585-0.26-0.277
		c0.118,0.006,0.105,0.251-0.01,0.269c-0.677-0.215-1.658,0.067-2.23-0.075c0,0.154-0.075,0.227-0.188,0.263 M491.073,16.699
		c0.198,0.317,0.424-0.326,0.191-0.44C491.27,16.481,491.115,16.531,491.073,16.699z M58.854,2.48
		c1.518,1.423,3.487,0.318,5.149,0.975c1.688-0.421,3.957,0.274,5.545-0.173c0.007-0.143-0.546,0.083-0.435-0.371
		c-0.556,0.291-0.842,0.186-1.427-0.048c-1.127,0.18-2.277-0.11-3.476-0.294c-0.297-0.045-0.657,0.187-0.797-0.206
		c-0.499,0.184-1.234,0.229-1.604-0.143C61.049,2.685,59.818,2.016,58.854,2.48z M69.634,3.376c0.353,0.184,0.404,0.007,0.804,0.026
		c0.002-0.059,0.005-0.119,0.006-0.179c-0.003-0.055-0.01-0.105-0.086-0.093C70.169,3.242,69.829,3.093,69.634,3.376z M70.97,3.51
		c0.021-0.223,0.303-0.017,0.357,0.011c-0.016-0.158,0.104-0.443-0.167-0.362C71.242,3.43,70.684,3.188,70.97,3.51z M72.131,3.548
		c0.296-0.02,0.549,0.005,0.618,0.199c0.052-0.428,0.029,0.108,0.268,0.009c0.143-0.595-0.593-0.368-0.875-0.565
		C72.126,3.434,72.285,3.376,72.131,3.548z M71.687,3.443c-0.039-0.106-0.089-0.206-0.169-0.273
		c-0.345,0.433,0.611,0.462,0.618,0.199C71.725,3.329,71.9,3.09,71.687,3.443z M442.402,15.972c0.082-0.34-0.53-0.478-0.612-0.377
		C441.978,15.735,442.287,15.763,442.402,15.972z M426.145,15.877c-0.435-0.038-1.885-0.098-2.398-0.349
		c-0.205,0.241-0.883,0.085-1.35,0.224c0.011-0.153-0.06-0.231-0.171-0.274c-0.307,0.368-0.94-0.149-1.168,0.229
		c-0.004-0.141,0.023-0.31-0.169-0.274c-0.255,0.391-0.985-0.18-1.351,0.312c-0.069-0.64-0.574,0.048-0.702-0.381
		c-0.418,0.288-0.659,0.179-1.161-0.038c-0.47,0.227-0.94,0.337-1.248-0.041c-0.325,0.408-0.676,0.109-1.159-0.04
		c-0.699,0.383-2.176-0.28-2.866,0.174c0-0.371-0.057-0.019-0.179-0.007c-0.043-0.218-0.329-0.209-0.525-0.285
		c-0.385,0.415-0.785-0.142-1.083,0.321c-0.047-0.13-0.133-0.223-0.26-0.276c0.054,0.241-0.19,0.166-0.275,0.259
		c-0.007-0.168-0.05-0.3-0.167-0.363c-0.249,0.264-0.494-0.04-0.723,0.244c-0.012-0.105,0.023-0.252-0.081-0.271
		c-0.081,0.129-0.142,0.279-0.365,0.257c-0.186-0.748-0.861,0.329-0.973-0.301c-0.065,0.459-0.207-0.107-0.354-0.101
		c-0.021,0.133,0.021,0.33-0.103,0.352c-1.158-0.128-3.438-0.077-4.724-0.335c0,0.154-0.077,0.227-0.187,0.263
		c-0.328-0.361-1.127,0.098-1.243-0.31c-0.42,0.292-0.445-0.113-0.81,0.24c-1.146-0.532-2.363,0.318-3.562-0.387
		c-1.014,0.314-2.473,0.011-3.751-0.035c-1.286-0.047-2.566,0.192-3.757,0.142c-1.68-0.069-4.424-0.478-6.158-0.204
		c-2.672-0.479-5.107-0.189-7.581-0.342c-0.981-0.062-1.976-0.153-2.944-0.189c-0.893-0.031-2.027,0.147-2.682,0.091
		c-0.147-0.013-0.276-0.257-0.438-0.282c-0.424-0.069-1.039,0.162-1.523,0.128c-1.682-0.123-3.688-0.113-4.727-0.336
		c-1.661,0.427-3.438-0.297-4.827,0.106c-1.432-0.2-3.462-0.075-5-0.077c0.01-0.153-0.062-0.233-0.171-0.274
		c-0.172,0.29-0.521-0.019-0.726,0.334c-2.74-0.405-4.999-0.484-7.234-0.062 M331.996,12.652c-0.018-0.071,0.002-0.178-0.084-0.184
		c-0.003,0.09-0.005,0.18-0.009,0.268c0.123,0.009,0.197-0.034,0.27-0.079c0.047,0.599,0.128,0.573,0.183-0.084
		C332.2,12.561,332.077,12.584,331.996,12.652z M516.822,18.808c-0.299,0.002-0.818-0.201-1.334-0.224
		c-0.307-0.014-1.429-0.055-1.436,0.22c-0.123,0-0.194-0.047-0.264-0.097 M431.828,16.959c-0.038-0.354-0.245-1.146-0.34-0.547
		c0.004-0.554-0.734-0.113-1.145-0.485c-0.286,0.222-1.767-0.032-2.325,0.102c0.053-0.013-0.244,0.161-0.263-0.187 M71.75,4.249
		c0.896,0.458,2.383,0.522,2.854,0.096c-0.599,0.022-0.729-0.167-1.064-0.215c0.009,0.195-0.082,0.282-0.276,0.26
		c-0.039-0.107-0.089-0.206-0.17-0.273C72.821,4.388,72.13,4.291,71.75,4.249z M344.116,13.591
		c-1.163-0.242-2.118-0.505-3.123-0.193c-0.009-0.134,0.046-0.328-0.075-0.359 M339.385,13.434c-0.451-0.173-0.87,0.1-1.243-0.221
		c0,0.309-0.47,0.115-0.548,0.339c-0.365-0.476-1.435-0.04-1.951-0.422c-0.616,0.249-1.708,0.34-2.415,0.098
		c-0.018,0.104,0.007,0.255-0.1,0.266c0.088-0.284-0.128-0.283-0.255-0.367c-0.017,0.105,0.007,0.254-0.099,0.265
		c-0.083-0.122-0.298-0.125-0.349-0.278c0.023,0.301-0.391,0.135-0.543,0.249c0.003-0.088,0.075-0.104,0.096-0.175
		c-0.506,0.05-0.796,0.41-0.974-0.301c0.049,0.003,0.104-0.069,0.003-0.089c-0.246,0.106-0.053,0.682-0.553,0.517
		c0.262-0.276-0.144-0.516-0.257-0.366c0.013,0.018,0.163,0.431-0.102,0.353c-0.237,0.021,0.102-0.496-0.255-0.365
		c-0.137,0.192-0.215-0.12-0.271,0.08c0.139,0.26-0.734,0.31-0.623-0.02c0,0.154-0.077,0.226-0.189,0.262
		c-0.789-0.222-2.639,0.156-3.209-0.196c-0.26,0.257-0.506,0.263-0.448-0.016c-0.315,0.315-0.568-0.009-0.978-0.121
		c-0.711,0.129-1.81,0.184-2.587-0.087c0.1,0.022,0.137,0.104,0.172,0.186c-3.261-0.492-6.596-0.214-9.001-0.657
		c-0.048,0.103-0.103,0.198-0.189,0.262c-0.979-0.301-1.688-0.034-3.036-0.013 M307.875,12.562
		c-0.999-0.198-1.975-0.311-3.123-0.104"/>
</g>
</svg>
